<svg width="41" height="13" viewBox="0 0 41 13" fill="none" xmlns="http://www.w3.org/2000/svg">
<path d="M6.968 5.44V6.976H0.392V5.44H6.968ZM16.8394 1.904H11.4794V5.088C11.7034 4.78933 12.034 4.53867 12.4714 4.336C12.9194 4.13333 13.394 4.032 13.8954 4.032C14.7914 4.032 15.5167 4.224 16.0714 4.608C16.6367 4.992 17.0367 5.47733 17.2714 6.064C17.5167 6.65067 17.6394 7.26933 17.6394 7.92C17.6394 8.70933 17.4847 9.41333 17.1754 10.032C16.8767 10.64 16.4234 11.12 15.8154 11.472C15.218 11.824 14.482 12 13.6074 12C12.4447 12 11.5114 11.712 10.8074 11.136C10.1034 10.56 9.68204 9.79733 9.54338 8.848H11.3194C11.4367 9.34933 11.698 9.74933 12.1034 10.048C12.5087 10.336 13.0154 10.48 13.6234 10.48C14.3807 10.48 14.946 10.2507 15.3194 9.792C15.7034 9.33333 15.8954 8.72533 15.8954 7.968C15.8954 7.2 15.7034 6.61333 15.3194 6.208C14.9354 5.792 14.37 5.584 13.6234 5.584C13.1007 5.584 12.658 5.71733 12.2954 5.984C11.9434 6.24 11.6874 6.592 11.5274 7.04H9.79938V0.304H16.8394V1.904ZM19.5381 6.016C19.5381 4.17067 19.8475 2.73067 20.4661 1.696C21.0955 0.650666 22.1728 0.127999 23.6981 0.127999C25.2235 0.127999 26.2955 0.650666 26.9141 1.696C27.5435 2.73067 27.8581 4.17067 27.8581 6.016C27.8581 7.88267 27.5435 9.344 26.9141 10.4C26.2955 11.4453 25.2235 11.968 23.6981 11.968C22.1728 11.968 21.0955 11.4453 20.4661 10.4C19.8475 9.344 19.5381 7.88267 19.5381 6.016ZM26.0661 6.016C26.0661 5.152 26.0075 4.42133 25.8901 3.824C25.7835 3.22667 25.5595 2.74133 25.2181 2.368C24.8768 1.984 24.3701 1.792 23.6981 1.792C23.0261 1.792 22.5195 1.984 22.1781 2.368C21.8368 2.74133 21.6075 3.22667 21.4901 3.824C21.3835 4.42133 21.3301 5.152 21.3301 6.016C21.3301 6.912 21.3835 7.664 21.4901 8.272C21.5968 8.88 21.8208 9.37067 22.1621 9.744C22.5141 10.1173 23.0261 10.304 23.6981 10.304C24.3701 10.304 24.8768 10.1173 25.2181 9.744C25.5701 9.37067 25.7995 8.88 25.9061 8.272C26.0128 7.664 26.0661 6.912 26.0661 6.016ZM29.5001 3.152C29.5001 2.37333 29.7241 1.76533 30.1721 1.328C30.6308 0.879999 31.2175 0.655999 31.9321 0.655999C32.6468 0.655999 33.2281 0.879999 33.6761 1.328C34.1348 1.76533 34.3641 2.37333 34.3641 3.152C34.3641 3.93067 34.1348 4.544 33.6761 4.992C33.2281 5.44 32.6468 5.664 31.9321 5.664C31.2175 5.664 30.6308 5.44 30.1721 4.992C29.7241 4.544 29.5001 3.93067 29.5001 3.152ZM39.2601 0.863999L32.8761 12H31.0841L37.4681 0.863999H39.2601ZM31.9321 1.76C31.2601 1.76 30.9241 2.224 30.9241 3.152C30.9241 4.09067 31.2601 4.56 31.9321 4.56C32.2521 4.56 32.4975 4.448 32.6681 4.224C32.8495 3.98933 32.9401 3.632 32.9401 3.152C32.9401 2.224 32.6041 1.76 31.9321 1.76ZM36.0121 9.696C36.0121 8.91733 36.2361 8.30933 36.6841 7.872C37.1428 7.424 37.7295 7.2 38.4441 7.2C39.1481 7.2 39.7241 7.424 40.1721 7.872C40.6308 8.30933 40.8601 8.91733 40.8601 9.696C40.8601 10.4747 40.6308 11.088 40.1721 11.536C39.7241 11.984 39.1481 12.208 38.4441 12.208C37.7295 12.208 37.1428 11.984 36.6841 11.536C36.2361 11.088 36.0121 10.4747 36.0121 9.696ZM38.4281 8.304C37.7561 8.304 37.4201 8.768 37.4201 9.696C37.4201 10.624 37.7561 11.088 38.4281 11.088C39.1001 11.088 39.4361 10.624 39.4361 9.696C39.4361 8.768 39.1001 8.304 38.4281 8.304Z" fill="white"/>
</svg>
