<svg width="285" height="446" viewBox="0 0 285 446" fill="none" xmlns="http://www.w3.org/2000/svg">
<rect opacity="0.72" width="285" height="446" fill="#3A3A3A"/>
<rect x="41" y="175" width="202" height="48" fill="white"/>
<path d="M107.952 202.872H103.504L102.768 205H100.416L104.432 193.816H107.04L111.056 205H108.688L107.952 202.872ZM107.344 201.08L105.728 196.408L104.112 201.08H107.344ZM111.981 200.536C111.981 199.64 112.157 198.845 112.509 198.152C112.872 197.459 113.362 196.925 113.981 196.552C114.6 196.179 115.288 195.992 116.045 195.992C116.621 195.992 117.17 196.12 117.693 196.376C118.216 196.621 118.632 196.952 118.941 197.368V193.16H121.213V205H118.941V203.688C118.664 204.125 118.274 204.477 117.773 204.744C117.272 205.011 116.69 205.144 116.029 205.144C115.282 205.144 114.6 204.952 113.981 204.568C113.362 204.184 112.872 203.645 112.509 202.952C112.157 202.248 111.981 201.443 111.981 200.536ZM118.957 200.568C118.957 200.024 118.85 199.56 118.637 199.176C118.424 198.781 118.136 198.483 117.773 198.28C117.41 198.067 117.021 197.96 116.605 197.96C116.189 197.96 115.805 198.061 115.453 198.264C115.101 198.467 114.813 198.765 114.589 199.16C114.376 199.544 114.269 200.003 114.269 200.536C114.269 201.069 114.376 201.539 114.589 201.944C114.813 202.339 115.101 202.643 115.453 202.856C115.816 203.069 116.2 203.176 116.605 203.176C117.021 203.176 117.41 203.075 117.773 202.872C118.136 202.659 118.424 202.36 118.637 201.976C118.85 201.581 118.957 201.112 118.957 200.568ZM122.825 200.536C122.825 199.64 123.001 198.845 123.353 198.152C123.716 197.459 124.206 196.925 124.825 196.552C125.444 196.179 126.132 195.992 126.889 195.992C127.465 195.992 128.014 196.12 128.537 196.376C129.06 196.621 129.476 196.952 129.785 197.368V193.16H132.057V205H129.785V203.688C129.508 204.125 129.118 204.477 128.617 204.744C128.116 205.011 127.534 205.144 126.873 205.144C126.126 205.144 125.444 204.952 124.825 204.568C124.206 204.184 123.716 203.645 123.353 202.952C123.001 202.248 122.825 201.443 122.825 200.536ZM129.801 200.568C129.801 200.024 129.694 199.56 129.481 199.176C129.268 198.781 128.98 198.483 128.617 198.28C128.254 198.067 127.865 197.96 127.449 197.96C127.033 197.96 126.649 198.061 126.297 198.264C125.945 198.467 125.657 198.765 125.433 199.16C125.22 199.544 125.113 200.003 125.113 200.536C125.113 201.069 125.22 201.539 125.433 201.944C125.657 202.339 125.945 202.643 126.297 202.856C126.66 203.069 127.044 203.176 127.449 203.176C127.865 203.176 128.254 203.075 128.617 202.872C128.98 202.659 129.268 202.36 129.481 201.976C129.694 201.581 129.801 201.112 129.801 200.568ZM140.665 197.976V202.264C140.665 202.563 140.734 202.781 140.873 202.92C141.022 203.048 141.268 203.112 141.609 203.112H142.649V205H141.241C139.353 205 138.409 204.083 138.409 202.248V197.976H137.353V196.136H138.409V193.944H140.665V196.136H142.649V197.976H140.665ZM148.196 205.144C147.343 205.144 146.575 204.957 145.892 204.584C145.21 204.2 144.671 203.661 144.276 202.968C143.892 202.275 143.7 201.475 143.7 200.568C143.7 199.661 143.898 198.861 144.292 198.168C144.698 197.475 145.247 196.941 145.94 196.568C146.634 196.184 147.407 195.992 148.26 195.992C149.114 195.992 149.887 196.184 150.58 196.568C151.274 196.941 151.818 197.475 152.212 198.168C152.618 198.861 152.82 199.661 152.82 200.568C152.82 201.475 152.612 202.275 152.196 202.968C151.791 203.661 151.236 204.2 150.532 204.584C149.839 204.957 149.06 205.144 148.196 205.144ZM148.196 203.192C148.602 203.192 148.98 203.096 149.332 202.904C149.695 202.701 149.983 202.403 150.196 202.008C150.41 201.613 150.516 201.133 150.516 200.568C150.516 199.725 150.292 199.08 149.844 198.632C149.407 198.173 148.868 197.944 148.228 197.944C147.588 197.944 147.05 198.173 146.612 198.632C146.186 199.08 145.972 199.725 145.972 200.568C145.972 201.411 146.18 202.061 146.596 202.52C147.023 202.968 147.556 203.192 148.196 203.192ZM157.7 200.568C157.7 199.651 157.887 198.851 158.26 198.168C158.633 197.475 159.151 196.941 159.812 196.568C160.473 196.184 161.231 195.992 162.084 195.992C163.183 195.992 164.089 196.269 164.804 196.824C165.529 197.368 166.015 198.136 166.26 199.128H163.844C163.716 198.744 163.497 198.445 163.188 198.232C162.889 198.008 162.516 197.896 162.068 197.896C161.428 197.896 160.921 198.131 160.548 198.6C160.175 199.059 159.988 199.715 159.988 200.568C159.988 201.411 160.175 202.067 160.548 202.536C160.921 202.995 161.428 203.224 162.068 203.224C162.975 203.224 163.567 202.819 163.844 202.008H166.26C166.015 202.968 165.529 203.731 164.804 204.296C164.079 204.861 163.172 205.144 162.084 205.144C161.231 205.144 160.473 204.957 159.812 204.584C159.151 204.2 158.633 203.667 158.26 202.984C157.887 202.291 157.7 201.485 157.7 200.568ZM167.325 200.536C167.325 199.64 167.501 198.845 167.853 198.152C168.216 197.459 168.701 196.925 169.309 196.552C169.928 196.179 170.616 195.992 171.373 195.992C172.034 195.992 172.61 196.125 173.101 196.392C173.602 196.659 174.002 196.995 174.301 197.4V196.136H176.557V205H174.301V203.704C174.013 204.12 173.613 204.467 173.101 204.744C172.6 205.011 172.018 205.144 171.357 205.144C170.61 205.144 169.928 204.952 169.309 204.568C168.701 204.184 168.216 203.645 167.853 202.952C167.501 202.248 167.325 201.443 167.325 200.536ZM174.301 200.568C174.301 200.024 174.194 199.56 173.981 199.176C173.768 198.781 173.48 198.483 173.117 198.28C172.754 198.067 172.365 197.96 171.949 197.96C171.533 197.96 171.149 198.061 170.797 198.264C170.445 198.467 170.157 198.765 169.933 199.16C169.72 199.544 169.613 200.003 169.613 200.536C169.613 201.069 169.72 201.539 169.933 201.944C170.157 202.339 170.445 202.643 170.797 202.856C171.16 203.069 171.544 203.176 171.949 203.176C172.365 203.176 172.754 203.075 173.117 202.872C173.48 202.659 173.768 202.36 173.981 201.976C174.194 201.581 174.301 201.112 174.301 200.568ZM180.985 197.512C181.273 197.043 181.646 196.675 182.105 196.408C182.574 196.141 183.107 196.008 183.705 196.008V198.36H183.113C182.409 198.36 181.875 198.525 181.513 198.856C181.161 199.187 180.985 199.763 180.985 200.584V205H178.745V196.136H180.985V197.512ZM187.821 197.976V202.264C187.821 202.563 187.891 202.781 188.029 202.92C188.179 203.048 188.424 203.112 188.765 203.112H189.805V205H188.397C186.509 205 185.565 204.083 185.565 202.248V197.976H184.509V196.136H185.565V193.944H187.821V196.136H189.805V197.976H187.821Z" fill="#B88E2F"/>
<path d="M28 261.667C27.4747 261.667 27 261.873 26.644 262.205L21.94 259.467C21.9733 259.313 22 259.16 22 259C22 258.84 21.9733 258.687 21.94 258.533L26.64 255.793C27 256.127 27.4733 256.333 28 256.333C29.1067 256.333 30 255.44 30 254.333C30 253.227 29.1067 252.333 28 252.333C26.8933 252.333 26 253.227 26 254.333C26 254.493 26.0267 254.647 26.06 254.8L21.36 257.54C21 257.207 20.5267 257 20 257C18.8933 257 18 257.893 18 259C18 260.107 18.8933 261 20 261C20.5267 261 21 260.793 21.36 260.46L26.0587 263.205C26.0211 263.356 26.0014 263.511 26 263.667C26 264.062 26.1173 264.449 26.3371 264.778C26.5568 265.107 26.8692 265.363 27.2346 265.514C27.6001 265.666 28.0022 265.705 28.3902 265.628C28.7781 265.551 29.1345 265.361 29.4142 265.081C29.6939 264.801 29.8844 264.445 29.9616 264.057C30.0387 263.669 29.9991 263.267 29.8478 262.901C29.6964 262.536 29.44 262.224 29.1111 262.004C28.7822 261.784 28.3956 261.667 28 261.667Z" fill="white"/>
<path d="M38.96 265.112C38.1813 265.112 37.4773 264.979 36.848 264.712C36.2293 264.445 35.7387 264.061 35.376 263.56C35.0133 263.059 34.8267 262.467 34.816 261.784H37.216C37.248 262.243 37.408 262.605 37.696 262.872C37.9947 263.139 38.4 263.272 38.912 263.272C39.4347 263.272 39.8453 263.149 40.144 262.904C40.4427 262.648 40.592 262.317 40.592 261.912C40.592 261.581 40.4907 261.309 40.288 261.096C40.0853 260.883 39.8293 260.717 39.52 260.6C39.2213 260.472 38.8053 260.333 38.272 260.184C37.5467 259.971 36.9547 259.763 36.496 259.56C36.048 259.347 35.6587 259.032 35.328 258.616C35.008 258.189 34.848 257.624 34.848 256.92C34.848 256.259 35.0133 255.683 35.344 255.192C35.6747 254.701 36.1387 254.328 36.736 254.072C37.3333 253.805 38.016 253.672 38.784 253.672C39.936 253.672 40.8693 253.955 41.584 254.52C42.3093 255.075 42.7093 255.853 42.784 256.856H40.32C40.2987 256.472 40.1333 256.157 39.824 255.912C39.5253 255.656 39.1253 255.528 38.624 255.528C38.1867 255.528 37.8347 255.64 37.568 255.864C37.312 256.088 37.184 256.413 37.184 256.84C37.184 257.139 37.28 257.389 37.472 257.592C37.6747 257.784 37.92 257.944 38.208 258.072C38.5067 258.189 38.9227 258.328 39.456 258.488C40.1813 258.701 40.7733 258.915 41.232 259.128C41.6907 259.341 42.0853 259.661 42.416 260.088C42.7467 260.515 42.912 261.075 42.912 261.768C42.912 262.365 42.7573 262.92 42.448 263.432C42.1387 263.944 41.6853 264.355 41.088 264.664C40.4907 264.963 39.7813 265.112 38.96 265.112ZM49.846 256.008C50.518 256.008 51.1153 256.157 51.638 256.456C52.1607 256.744 52.566 257.176 52.854 257.752C53.1527 258.317 53.302 259 53.302 259.8V265H51.062V260.104C51.062 259.4 50.886 258.861 50.534 258.488C50.182 258.104 49.702 257.912 49.094 257.912C48.4753 257.912 47.9847 258.104 47.622 258.488C47.27 258.861 47.094 259.4 47.094 260.104V265H44.854V253.16H47.094V257.24C47.382 256.856 47.766 256.557 48.246 256.344C48.726 256.12 49.2593 256.008 49.846 256.008ZM54.8561 260.536C54.8561 259.64 55.0321 258.845 55.3841 258.152C55.7468 257.459 56.2321 256.925 56.8401 256.552C57.4588 256.179 58.1468 255.992 58.9041 255.992C59.5655 255.992 60.1415 256.125 60.6321 256.392C61.1335 256.659 61.5335 256.995 61.8321 257.4V256.136H64.0881V265H61.8321V263.704C61.5441 264.12 61.1441 264.467 60.6321 264.744C60.1308 265.011 59.5495 265.144 58.8881 265.144C58.1415 265.144 57.4588 264.952 56.8401 264.568C56.2321 264.184 55.7468 263.645 55.3841 262.952C55.0321 262.248 54.8561 261.443 54.8561 260.536ZM61.8321 260.568C61.8321 260.024 61.7255 259.56 61.5121 259.176C61.2988 258.781 61.0108 258.483 60.6481 258.28C60.2855 258.067 59.8961 257.96 59.4801 257.96C59.0641 257.96 58.6801 258.061 58.3281 258.264C57.9761 258.467 57.6881 258.765 57.4641 259.16C57.2508 259.544 57.1441 260.003 57.1441 260.536C57.1441 261.069 57.2508 261.539 57.4641 261.944C57.6881 262.339 57.9761 262.643 58.3281 262.856C58.6908 263.069 59.0748 263.176 59.4801 263.176C59.8961 263.176 60.2855 263.075 60.6481 262.872C61.0108 262.659 61.2988 262.36 61.5121 261.976C61.7255 261.581 61.8321 261.112 61.8321 260.568ZM68.5159 257.512C68.8039 257.043 69.1772 256.675 69.6359 256.408C70.1052 256.141 70.6385 256.008 71.2359 256.008V258.36H70.6439C69.9399 258.36 69.4065 258.525 69.0439 258.856C68.6919 259.187 68.5159 259.763 68.5159 260.584V265H66.2759V256.136H68.5159V257.512ZM80.9846 260.376C80.9846 260.696 80.9633 260.984 80.9206 261.24H74.4406C74.494 261.88 74.718 262.381 75.1126 262.744C75.5073 263.107 75.9926 263.288 76.5686 263.288C77.4006 263.288 77.9926 262.931 78.3446 262.216H80.7606C80.5046 263.069 80.014 263.773 79.2886 264.328C78.5633 264.872 77.6726 265.144 76.6166 265.144C75.7633 265.144 74.9953 264.957 74.3126 264.584C73.6406 264.2 73.1126 263.661 72.7286 262.968C72.3553 262.275 72.1686 261.475 72.1686 260.568C72.1686 259.651 72.3553 258.845 72.7286 258.152C73.102 257.459 73.6246 256.925 74.2966 256.552C74.9686 256.179 75.742 255.992 76.6166 255.992C77.4593 255.992 78.2113 256.173 78.8726 256.536C79.5446 256.899 80.062 257.416 80.4246 258.088C80.798 258.749 80.9846 259.512 80.9846 260.376ZM78.6646 259.736C78.654 259.16 78.446 258.701 78.0406 258.36C77.6353 258.008 77.1393 257.832 76.5526 257.832C75.998 257.832 75.5286 258.003 75.1446 258.344C74.7713 258.675 74.542 259.139 74.4566 259.736H78.6646Z" fill="white"/>
<path d="M112.08 258L113.08 259L116.52 255.55L113 252L112 253L113.8 254.8H104V256.2H113.82L112.08 258ZM107.86 260L106.86 259L103.42 262.5L106.91 266L107.91 265L106.1 263.2H116V261.8H106.1L107.86 260Z" fill="white"/>
<path d="M120.56 259.4C120.56 258.301 120.805 257.32 121.296 256.456C121.797 255.581 122.475 254.904 123.328 254.424C124.192 253.933 125.157 253.688 126.224 253.688C127.472 253.688 128.565 254.008 129.504 254.648C130.443 255.288 131.099 256.173 131.472 257.304H128.896C128.64 256.771 128.277 256.371 127.808 256.104C127.349 255.837 126.816 255.704 126.208 255.704C125.557 255.704 124.976 255.859 124.464 256.168C123.963 256.467 123.568 256.893 123.28 257.448C123.003 258.003 122.864 258.653 122.864 259.4C122.864 260.136 123.003 260.787 123.28 261.352C123.568 261.907 123.963 262.339 124.464 262.648C124.976 262.947 125.557 263.096 126.208 263.096C126.816 263.096 127.349 262.963 127.808 262.696C128.277 262.419 128.64 262.013 128.896 261.48H131.472C131.099 262.621 130.443 263.512 129.504 264.152C128.576 264.781 127.483 265.096 126.224 265.096C125.157 265.096 124.192 264.856 123.328 264.376C122.475 263.885 121.797 263.208 121.296 262.344C120.805 261.48 120.56 260.499 120.56 259.4ZM137.321 265.144C136.468 265.144 135.7 264.957 135.017 264.584C134.335 264.2 133.796 263.661 133.401 262.968C133.017 262.275 132.825 261.475 132.825 260.568C132.825 259.661 133.023 258.861 133.417 258.168C133.823 257.475 134.372 256.941 135.065 256.568C135.759 256.184 136.532 255.992 137.385 255.992C138.239 255.992 139.012 256.184 139.705 256.568C140.399 256.941 140.943 257.475 141.337 258.168C141.743 258.861 141.945 259.661 141.945 260.568C141.945 261.475 141.737 262.275 141.321 262.968C140.916 263.661 140.361 264.2 139.657 264.584C138.964 264.957 138.185 265.144 137.321 265.144ZM137.321 263.192C137.727 263.192 138.105 263.096 138.457 262.904C138.82 262.701 139.108 262.403 139.321 262.008C139.535 261.613 139.641 261.133 139.641 260.568C139.641 259.725 139.417 259.08 138.969 258.632C138.532 258.173 137.993 257.944 137.353 257.944C136.713 257.944 136.175 258.173 135.737 258.632C135.311 259.08 135.097 259.725 135.097 260.568C135.097 261.411 135.305 262.061 135.721 262.52C136.148 262.968 136.681 263.192 137.321 263.192ZM154.596 256.008C155.684 256.008 156.559 256.344 157.22 257.016C157.892 257.677 158.228 258.605 158.228 259.8V265H155.988V260.104C155.988 259.411 155.812 258.883 155.46 258.52C155.108 258.147 154.628 257.96 154.02 257.96C153.412 257.96 152.927 258.147 152.564 258.52C152.212 258.883 152.036 259.411 152.036 260.104V265H149.796V260.104C149.796 259.411 149.62 258.883 149.268 258.52C148.916 258.147 148.436 257.96 147.828 257.96C147.21 257.96 146.719 258.147 146.356 258.52C146.004 258.883 145.828 259.411 145.828 260.104V265H143.588V256.136H145.828V257.208C146.116 256.835 146.484 256.541 146.932 256.328C147.391 256.115 147.892 256.008 148.436 256.008C149.13 256.008 149.748 256.157 150.292 256.456C150.836 256.744 151.258 257.16 151.556 257.704C151.844 257.192 152.26 256.781 152.804 256.472C153.359 256.163 153.956 256.008 154.596 256.008ZM162.594 257.416C162.882 257.011 163.277 256.675 163.778 256.408C164.29 256.131 164.871 255.992 165.522 255.992C166.279 255.992 166.962 256.179 167.57 256.552C168.189 256.925 168.674 257.459 169.026 258.152C169.389 258.835 169.57 259.629 169.57 260.536C169.57 261.443 169.389 262.248 169.026 262.952C168.674 263.645 168.189 264.184 167.57 264.568C166.962 264.952 166.279 265.144 165.522 265.144C164.871 265.144 164.295 265.011 163.794 264.744C163.303 264.477 162.903 264.141 162.594 263.736V269.224H160.354V256.136H162.594V257.416ZM167.282 260.536C167.282 260.003 167.17 259.544 166.946 259.16C166.733 258.765 166.445 258.467 166.082 258.264C165.73 258.061 165.346 257.96 164.93 257.96C164.525 257.96 164.141 258.067 163.778 258.28C163.426 258.483 163.138 258.781 162.914 259.176C162.701 259.571 162.594 260.035 162.594 260.568C162.594 261.101 162.701 261.565 162.914 261.96C163.138 262.355 163.426 262.659 163.778 262.872C164.141 263.075 164.525 263.176 164.93 263.176C165.346 263.176 165.73 263.069 166.082 262.856C166.445 262.643 166.733 262.339 166.946 261.944C167.17 261.549 167.282 261.08 167.282 260.536ZM170.622 260.536C170.622 259.64 170.798 258.845 171.15 258.152C171.512 257.459 171.998 256.925 172.606 256.552C173.224 256.179 173.912 255.992 174.67 255.992C175.331 255.992 175.907 256.125 176.398 256.392C176.899 256.659 177.299 256.995 177.598 257.4V256.136H179.854V265H177.598V263.704C177.31 264.12 176.91 264.467 176.398 264.744C175.896 265.011 175.315 265.144 174.654 265.144C173.907 265.144 173.224 264.952 172.606 264.568C171.998 264.184 171.512 263.645 171.15 262.952C170.798 262.248 170.622 261.443 170.622 260.536ZM177.598 260.568C177.598 260.024 177.491 259.56 177.278 259.176C177.064 258.781 176.776 258.483 176.414 258.28C176.051 258.067 175.662 257.96 175.246 257.96C174.83 257.96 174.446 258.061 174.094 258.264C173.742 258.467 173.454 258.765 173.23 259.16C173.016 259.544 172.91 260.003 172.91 260.536C172.91 261.069 173.016 261.539 173.23 261.944C173.454 262.339 173.742 262.643 174.094 262.856C174.456 263.069 174.84 263.176 175.246 263.176C175.662 263.176 176.051 263.075 176.414 262.872C176.776 262.659 177.064 262.36 177.278 261.976C177.491 261.581 177.598 261.112 177.598 260.568ZM184.282 257.512C184.57 257.043 184.943 256.675 185.402 256.408C185.871 256.141 186.404 256.008 187.002 256.008V258.36H186.41C185.706 258.36 185.172 258.525 184.81 258.856C184.458 259.187 184.282 259.763 184.282 260.584V265H182.042V256.136H184.282V257.512ZM196.75 260.376C196.75 260.696 196.729 260.984 196.686 261.24H190.206C190.26 261.88 190.484 262.381 190.878 262.744C191.273 263.107 191.758 263.288 192.334 263.288C193.166 263.288 193.758 262.931 194.11 262.216H196.526C196.27 263.069 195.78 263.773 195.054 264.328C194.329 264.872 193.438 265.144 192.382 265.144C191.529 265.144 190.761 264.957 190.078 264.584C189.406 264.2 188.878 263.661 188.494 262.968C188.121 262.275 187.934 261.475 187.934 260.568C187.934 259.651 188.121 258.845 188.494 258.152C188.868 257.459 189.39 256.925 190.062 256.552C190.734 256.179 191.508 255.992 192.382 255.992C193.225 255.992 193.977 256.173 194.638 256.536C195.31 256.899 195.828 257.416 196.19 258.088C196.564 258.749 196.75 259.512 196.75 260.376ZM194.43 259.736C194.42 259.16 194.212 258.701 193.806 258.36C193.401 258.008 192.905 257.832 192.318 257.832C191.764 257.832 191.294 258.003 190.91 258.344C190.537 258.675 190.308 259.139 190.222 259.736H194.43Z" fill="white"/>
<path d="M226 265.036C212.667 257.667 222 249.667 226 254.725C230 249.667 239.333 257.667 226 265.036Z" stroke="white" stroke-width="1.8"/>
<path d="M239.344 263.224H243.024V265H237.104V253.832H239.344V263.224ZM245.584 255.08C245.189 255.08 244.858 254.957 244.592 254.712C244.336 254.456 244.208 254.141 244.208 253.768C244.208 253.395 244.336 253.085 244.592 252.84C244.858 252.584 245.189 252.456 245.584 252.456C245.978 252.456 246.304 252.584 246.56 252.84C246.826 253.085 246.96 253.395 246.96 253.768C246.96 254.141 246.826 254.456 246.56 254.712C246.304 254.957 245.978 255.08 245.584 255.08ZM246.688 256.136V265H244.448V256.136H246.688ZM254.149 265L251.141 261.224V265H248.901V253.16H251.141V259.896L254.117 256.136H257.029L253.125 260.584L257.061 265H254.149ZM266.485 260.376C266.485 260.696 266.463 260.984 266.421 261.24H259.941C259.994 261.88 260.218 262.381 260.613 262.744C261.007 263.107 261.493 263.288 262.069 263.288C262.901 263.288 263.493 262.931 263.845 262.216H266.261C266.005 263.069 265.514 263.773 264.789 264.328C264.063 264.872 263.173 265.144 262.117 265.144C261.263 265.144 260.495 264.957 259.813 264.584C259.141 264.2 258.613 263.661 258.229 262.968C257.855 262.275 257.669 261.475 257.669 260.568C257.669 259.651 257.855 258.845 258.229 258.152C258.602 257.459 259.125 256.925 259.797 256.552C260.469 256.179 261.242 255.992 262.117 255.992C262.959 255.992 263.711 256.173 264.373 256.536C265.045 256.899 265.562 257.416 265.925 258.088C266.298 258.749 266.485 259.512 266.485 260.376ZM264.165 259.736C264.154 259.16 263.946 258.701 263.541 258.36C263.135 258.008 262.639 257.832 262.053 257.832C261.498 257.832 261.029 258.003 260.645 258.344C260.271 258.675 260.042 259.139 259.957 259.736H264.165Z" fill="white"/>
</svg>
